<?xml version="1.0" encoding="utf-8"?>
<!-- Generator: Adobe Illustrator 15.0.0, SVG Export Plug-In  -->
<!DOCTYPE svg PUBLIC "-//W3C//DTD SVG 1.1//EN" "http://www.w3.org/Graphics/SVG/1.1/DTD/svg11.dtd" [
	<!ENTITY ns_flows "http://ns.adobe.com/Flows/1.0/">
]>
<svg version="1.1"
	 xmlns="http://www.w3.org/2000/svg" xmlns:xlink="http://www.w3.org/1999/xlink" xmlns:a="http://ns.adobe.com/AdobeSVGViewerExtensions/3.0/"
	 x="0px" y="0px" width="205px" height="94px" viewBox="0 0 205 94" overflow="visible" enable-background="new 0 0 205 94"
	 xml:space="preserve">
<defs>
</defs>
<path fill="#474645" d="M4.601,86.893c-1.78,0-3.132-0.379-4.287-1.55l1.484-1.484c0.742,0.742,1.748,0.99,2.836,0.99
	c1.352,0,2.077-0.511,2.077-1.451c0-0.412-0.115-0.758-0.362-0.989c-0.231-0.214-0.495-0.33-1.039-0.412l-1.418-0.198
	c-1.005-0.148-1.748-0.462-2.275-0.973c-0.561-0.561-0.841-1.319-0.841-2.309c0-2.094,1.55-3.561,4.089-3.561
	c1.616,0,2.786,0.396,3.792,1.368l-1.451,1.435c-0.742-0.709-1.632-0.808-2.407-0.808c-1.22,0-1.814,0.676-1.814,1.484
	c0,0.297,0.099,0.61,0.346,0.841c0.231,0.214,0.61,0.396,1.088,0.461l1.385,0.198c1.072,0.148,1.748,0.445,2.243,0.907
	c0.626,0.594,0.907,1.451,0.907,2.49C8.954,85.607,7.058,86.893,4.601,86.893z M11.115,86.794V75.055h7.733v2.044h-5.441v2.753
	h4.633v2.044h-4.633v2.853h5.441v2.044H11.115z M21.092,86.794V75.055h2.292v11.739H21.092z M32.948,86.794l-3.018-5.342
	l-1.517,1.813v3.528h-2.292V75.055h2.292v5.111l4.138-5.111h2.787l-3.891,4.666l4.171,7.073H32.948z M44.194,85.607
	c-0.824,0.824-1.83,1.286-3.166,1.286s-2.358-0.462-3.182-1.286c-1.187-1.187-1.154-2.655-1.154-4.683s-0.033-3.496,1.154-4.683
	c0.824-0.824,1.847-1.286,3.182-1.286s2.341,0.461,3.166,1.286c1.187,1.187,1.171,2.655,1.171,4.683S45.381,84.42,44.194,85.607z
	 M42.496,77.627C42.166,77.248,41.655,77,41.028,77s-1.154,0.248-1.484,0.627c-0.445,0.495-0.561,1.039-0.561,3.297
	s0.115,2.803,0.561,3.297c0.33,0.379,0.857,0.627,1.484,0.627s1.138-0.248,1.467-0.627c0.445-0.495,0.577-1.039,0.577-3.297
	S42.941,78.122,42.496,77.627z M51.533,86.794V75.055h7.733v2.044h-5.441v2.753h4.633v2.044h-4.633v2.853h5.441v2.044H51.533z
	 M61.51,86.794V75.055h2.292v9.695h5.326v2.044H61.51z M70.992,86.794V75.055h7.732v2.044h-5.441v2.753h4.633v2.044h-4.633v2.853
	h5.441v2.044H70.992z M84.893,86.893c-1.286,0-2.341-0.462-3.166-1.286c-1.188-1.187-1.154-2.655-1.154-4.683
	s-0.033-3.496,1.154-4.683c0.824-0.824,1.879-1.286,3.166-1.286c1.5,0,2.424,0.527,3.265,1.352l-1.517,1.517
	C86.129,77.313,85.717,77,84.893,77c-0.627,0-1.122,0.231-1.451,0.61c-0.445,0.495-0.577,1.055-0.577,3.314s0.132,2.819,0.577,3.314
	c0.33,0.379,0.824,0.61,1.451,0.61c0.824,0,1.236-0.313,1.748-0.825l1.517,1.517C87.317,86.365,86.394,86.893,84.893,86.893z
	 M94.721,77.099v9.695h-2.292v-9.695h-3.066v-2.044h8.425v2.044H94.721z M105.885,86.794l-2.292-4.683h-1.648v4.683h-2.292V75.055
	h4.6c2.391,0,3.809,1.632,3.809,3.594c0,1.649-1.005,2.671-2.143,3.083l2.621,5.062H105.885z M104.104,77.099h-2.16v3.1h2.16
	c1.006,0,1.666-0.643,1.666-1.55C105.77,77.742,105.11,77.099,104.104,77.099z M110.437,86.794V75.055h2.292v11.739H110.437z
	 M119.391,86.893c-1.286,0-2.341-0.462-3.166-1.286c-1.187-1.187-1.154-2.655-1.154-4.683s-0.033-3.496,1.154-4.683
	c0.824-0.824,1.879-1.286,3.166-1.286c1.5,0,2.424,0.527,3.265,1.352l-1.517,1.517c-0.511-0.511-0.923-0.825-1.748-0.825
	c-0.626,0-1.121,0.231-1.451,0.61c-0.445,0.495-0.577,1.055-0.577,3.314s0.132,2.819,0.577,3.314c0.33,0.379,0.824,0.61,1.451,0.61
	c0.825,0,1.237-0.313,1.748-0.825l1.517,1.517C121.814,86.365,120.891,86.893,119.391,86.893z M132.484,86.893
	c-1.286,0-2.341-0.462-3.166-1.286c-1.187-1.187-1.154-2.655-1.154-4.683s-0.033-3.496,1.154-4.683
	c0.824-0.824,1.879-1.286,3.166-1.286c1.5,0,2.424,0.527,3.265,1.352l-1.517,1.517c-0.511-0.511-0.923-0.825-1.748-0.825
	c-0.626,0-1.121,0.231-1.451,0.61c-0.445,0.495-0.577,1.055-0.577,3.314s0.132,2.819,0.577,3.314c0.33,0.379,0.824,0.61,1.451,0.61
	c0.825,0,1.237-0.313,1.748-0.825l1.517,1.517C134.908,86.365,133.984,86.893,132.484,86.893z M144.934,85.607
	c-0.824,0.824-1.83,1.286-3.166,1.286s-2.358-0.462-3.182-1.286c-1.187-1.187-1.154-2.655-1.154-4.683s-0.033-3.496,1.154-4.683
	c0.824-0.824,1.847-1.286,3.182-1.286s2.341,0.461,3.166,1.286c1.187,1.187,1.171,2.655,1.171,4.683S146.121,84.42,144.934,85.607z
	 M143.235,77.627c-0.33-0.379-0.841-0.627-1.467-0.627s-1.154,0.248-1.484,0.627c-0.445,0.495-0.561,1.039-0.561,3.297
	s0.115,2.803,0.561,3.297c0.33,0.379,0.857,0.627,1.484,0.627s1.138-0.248,1.467-0.627c0.445-0.495,0.577-1.039,0.577-3.297
	S143.681,78.122,143.235,77.627z M149.502,86.844c-0.791,0-1.434-0.643-1.434-1.435s0.643-1.435,1.434-1.435
	c0.792,0,1.451,0.643,1.451,1.435S150.294,86.844,149.502,86.844z M153.065,89.515v-5.062h2.357v3.248L153.065,89.515z
	 M161.738,86.794V75.055h2.292v9.695h5.326v2.044H161.738z M175.705,77.099v9.695h-2.292v-9.695h-3.066v-2.044h8.425v2.044H175.705z
	 M187.974,85.673c-0.775,0.775-1.88,1.121-3.1,1.121h-4.237V75.055h4.237c1.22,0,2.325,0.346,3.1,1.121
	c1.319,1.319,1.187,2.935,1.187,4.699S189.292,84.354,187.974,85.673z M186.374,77.825c-0.396-0.478-0.923-0.726-1.715-0.726h-1.731
	v7.65h1.731c0.792,0,1.319-0.248,1.715-0.726c0.429-0.527,0.495-1.368,0.495-3.149S186.803,78.352,186.374,77.825z M192.559,86.844
	c-0.792,0-1.435-0.643-1.435-1.435s0.643-1.435,1.435-1.435c0.791,0,1.451,0.643,1.451,1.435S193.35,86.844,192.559,86.844z"/>
<path fill="#474645" d="M2.952,6.944c-0.717,0-1.306-0.258-1.766-0.718c-0.662-0.662-0.644-1.48-0.644-2.612
	c0-1.131-0.018-1.95,0.644-2.612c0.459-0.46,1.048-0.717,1.766-0.717c0.837,0,1.352,0.294,1.821,0.754L3.927,1.885
	c-0.285-0.285-0.515-0.46-0.975-0.46c-0.35,0-0.625,0.129-0.81,0.34C1.895,2.042,1.821,2.354,1.821,3.614
	c0,1.26,0.073,1.573,0.321,1.849c0.184,0.212,0.46,0.34,0.81,0.34c0.46,0,0.69-0.175,0.975-0.46l0.846,0.846
	C4.304,6.649,3.789,6.944,2.952,6.944z M8.444,3.403C8.26,3.219,8.104,3.118,7.81,3.118c-0.368,0-0.772,0.276-0.772,0.883v2.888
	H5.841V2.097h1.168v0.459c0.23-0.276,0.69-0.515,1.205-0.515c0.469,0,0.8,0.119,1.131,0.45L8.444,3.403z M10.965,4.865
	c0,0.616,0.377,1.067,1.048,1.067c0.524,0,0.782-0.147,1.085-0.451l0.727,0.708c-0.488,0.487-0.957,0.754-1.821,0.754
	c-1.131,0-2.216-0.515-2.216-2.456c0-1.563,0.846-2.446,2.088-2.446c1.333,0,2.087,0.975,2.087,2.29v0.533H10.965z M12.676,3.532
	c-0.128-0.285-0.396-0.497-0.8-0.497c-0.405,0-0.672,0.211-0.8,0.497c-0.074,0.175-0.101,0.303-0.11,0.515h1.821
	C12.777,3.835,12.75,3.707,12.676,3.532z M17.524,6.889V6.475c-0.322,0.322-0.625,0.46-1.177,0.46c-0.542,0-0.938-0.138-1.223-0.423
	c-0.257-0.267-0.396-0.653-0.396-1.076c0-0.764,0.524-1.389,1.637-1.389h1.131V3.808c0-0.524-0.258-0.754-0.892-0.754
	c-0.46,0-0.672,0.111-0.92,0.396l-0.763-0.745c0.469-0.515,0.929-0.662,1.729-0.662c1.343,0,2.042,0.57,2.042,1.692v3.155H17.524z
	 M17.497,4.865h-0.947c-0.433,0-0.671,0.202-0.671,0.542c0,0.331,0.221,0.552,0.689,0.552c0.331,0,0.542-0.027,0.754-0.23
	c0.128-0.12,0.175-0.312,0.175-0.607V4.865z M21.48,6.889c-0.975,0-1.389-0.69-1.389-1.371V3.146h-0.506V2.235h0.506V0.818h1.196
	v1.417h0.846v0.911h-0.846v2.299c0,0.276,0.128,0.432,0.414,0.432h0.432v1.012H21.48z M23.817,1.499
	c-0.414,0-0.754-0.34-0.754-0.754c0-0.414,0.34-0.745,0.754-0.745c0.414,0,0.745,0.331,0.745,0.745
	C24.562,1.159,24.23,1.499,23.817,1.499z M23.219,6.889V2.097h1.196v4.792H23.219z M28.536,6.889V3.992
	c0-0.653-0.414-0.874-0.791-0.874s-0.8,0.221-0.8,0.874v2.897h-1.196V2.097h1.168v0.441c0.312-0.331,0.754-0.497,1.195-0.497
	c0.479,0,0.865,0.156,1.131,0.423c0.386,0.386,0.487,0.837,0.487,1.361v3.063H28.536z M32.676,8.7c-0.736,0-1.242-0.147-1.738-0.625
	l0.745-0.754c0.267,0.257,0.534,0.368,0.938,0.368c0.717,0,0.965-0.506,0.965-0.993V6.208c-0.312,0.35-0.671,0.478-1.14,0.478
	s-0.874-0.156-1.141-0.423c-0.451-0.451-0.487-1.067-0.487-1.904s0.037-1.444,0.487-1.895c0.267-0.267,0.681-0.423,1.15-0.423
	c0.506,0,0.837,0.138,1.168,0.506V2.097h1.159v4.617C34.782,7.863,33.963,8.7,32.676,8.7z M32.795,3.118
	c-0.708,0-0.782,0.607-0.782,1.242s0.074,1.25,0.782,1.25c0.708,0,0.791-0.616,0.791-1.25S33.503,3.118,32.795,3.118z M39.759,6.889
	c-0.975,0-1.389-0.69-1.389-1.371V3.146h-0.506V2.235h0.506V0.818h1.196v1.417h0.846v0.911h-0.846v2.299
	c0,0.276,0.128,0.432,0.414,0.432h0.432v1.012H39.759z M44.248,6.889V3.964c0-0.635-0.404-0.846-0.782-0.846
	c-0.377,0-0.772,0.221-0.772,0.846v2.925h-1.196V0.34h1.196v2.198c0.322-0.331,0.727-0.497,1.15-0.497c1.048,0,1.6,0.735,1.6,1.747
	v3.1H44.248z M47.671,4.865c0,0.616,0.377,1.067,1.048,1.067c0.524,0,0.782-0.147,1.085-0.451l0.727,0.708
	c-0.488,0.487-0.957,0.754-1.821,0.754c-1.131,0-2.216-0.515-2.216-2.456c0-1.563,0.846-2.446,2.088-2.446
	c1.333,0,2.087,0.975,2.087,2.29v0.533H47.671z M49.381,3.532c-0.128-0.285-0.396-0.497-0.8-0.497c-0.405,0-0.672,0.211-0.8,0.497
	c-0.074,0.175-0.101,0.303-0.11,0.515h1.821C49.482,3.835,49.455,3.707,49.381,3.532z M55.279,1.481V3.09h2.584v1.14h-2.584v2.658
	H54V0.34h4.313v1.141H55.279z M62.095,6.889V6.447c-0.312,0.331-0.754,0.497-1.195,0.497c-0.479,0-0.865-0.157-1.131-0.423
	c-0.386-0.386-0.487-0.837-0.487-1.361V2.097h1.196v2.897c0,0.653,0.414,0.874,0.791,0.874c0.377,0,0.8-0.221,0.8-0.874V2.097h1.196
	v4.792H62.095z M66.106,6.889c-0.975,0-1.389-0.69-1.389-1.371V3.146h-0.506V2.235h0.506V0.818h1.195v1.417h0.846v0.911h-0.846
	v2.299c0,0.276,0.129,0.432,0.414,0.432h0.432v1.012H66.106z M70.604,6.889V6.447c-0.313,0.331-0.754,0.497-1.196,0.497
	c-0.478,0-0.864-0.157-1.131-0.423c-0.386-0.386-0.487-0.837-0.487-1.361V2.097h1.196v2.897c0,0.653,0.414,0.874,0.791,0.874
	s0.8-0.221,0.8-0.874V2.097h1.195v4.792H70.604z M75.719,3.403c-0.184-0.184-0.34-0.285-0.634-0.285
	c-0.368,0-0.772,0.276-0.772,0.883v2.888h-1.196V2.097h1.168v0.459c0.23-0.276,0.69-0.515,1.205-0.515c0.469,0,0.8,0.119,1.131,0.45
	L75.719,3.403z M78.241,4.865c0,0.616,0.377,1.067,1.048,1.067c0.524,0,0.782-0.147,1.085-0.451l0.727,0.708
	c-0.488,0.487-0.957,0.754-1.821,0.754c-1.131,0-2.216-0.515-2.216-2.456c0-1.563,0.846-2.446,2.087-2.446
	c1.333,0,2.088,0.975,2.088,2.29v0.533H78.241z M79.951,3.532c-0.129-0.285-0.396-0.497-0.8-0.497c-0.404,0-0.671,0.211-0.8,0.497
	c-0.074,0.175-0.101,0.303-0.11,0.515h1.821C80.052,3.835,80.025,3.707,79.951,3.532z M85.977,6.889
	c-0.975,0-1.389-0.69-1.389-1.371V3.146h-0.506V2.235h0.506V0.818h1.196v1.417h0.846v0.911h-0.846v2.299
	c0,0.276,0.128,0.432,0.414,0.432h0.432v1.012H85.977z M90.466,6.889V3.964c0-0.635-0.404-0.846-0.782-0.846
	c-0.377,0-0.772,0.221-0.772,0.846v2.925h-1.196V0.34h1.196v2.198c0.322-0.331,0.727-0.497,1.15-0.497c1.048,0,1.6,0.735,1.6,1.747
	v3.1H90.466z M96.261,6.355c-0.294,0.313-0.782,0.589-1.49,0.589s-1.187-0.276-1.481-0.589c-0.432-0.451-0.542-0.993-0.542-1.867
	c0-0.865,0.11-1.407,0.542-1.858c0.294-0.312,0.773-0.588,1.481-0.588s1.196,0.276,1.49,0.588c0.433,0.451,0.542,0.993,0.542,1.858
	C96.804,5.362,96.694,5.904,96.261,6.355z M95.333,3.329c-0.138-0.138-0.322-0.211-0.561-0.211s-0.414,0.074-0.552,0.211
	c-0.249,0.249-0.276,0.663-0.276,1.159s0.027,0.919,0.276,1.168c0.138,0.138,0.312,0.211,0.552,0.211s0.423-0.074,0.561-0.211
	c0.248-0.249,0.276-0.671,0.276-1.168S95.581,3.578,95.333,3.329z M100.705,6.889V6.447c-0.313,0.331-0.754,0.497-1.196,0.497
	c-0.478,0-0.865-0.157-1.131-0.423c-0.386-0.386-0.487-0.837-0.487-1.361V2.097h1.196v2.897c0,0.653,0.414,0.874,0.791,0.874
	c0.377,0,0.8-0.221,0.8-0.874V2.097h1.196v4.792H100.705z M104.873,8.7c-0.735,0-1.242-0.147-1.738-0.625l0.745-0.754
	c0.267,0.257,0.534,0.368,0.938,0.368c0.717,0,0.966-0.506,0.966-0.993V6.208c-0.312,0.35-0.671,0.478-1.141,0.478
	c-0.469,0-0.874-0.156-1.14-0.423c-0.451-0.451-0.488-1.067-0.488-1.904s0.037-1.444,0.488-1.895
	c0.267-0.267,0.681-0.423,1.149-0.423c0.506,0,0.837,0.138,1.168,0.506V2.097h1.159v4.617C106.979,7.863,106.16,8.7,104.873,8.7z
	 M104.992,3.118c-0.708,0-0.782,0.607-0.782,1.242s0.074,1.25,0.782,1.25c0.708,0,0.791-0.616,0.791-1.25
	S105.701,3.118,104.992,3.118z M111.073,6.889V3.964c0-0.635-0.404-0.846-0.782-0.846c-0.377,0-0.772,0.221-0.772,0.846v2.925
	h-1.196V0.34h1.196v2.198c0.322-0.331,0.727-0.497,1.15-0.497c1.048,0,1.6,0.735,1.6,1.747v3.1H111.073z M4.727,16.737
	c-0.459,0.459-1.021,0.717-1.766,0.717c-0.745,0-1.315-0.258-1.775-0.717c-0.662-0.663-0.644-1.481-0.644-2.612
	c0-1.131-0.018-1.95,0.644-2.612c0.459-0.46,1.03-0.717,1.775-0.717c0.745,0,1.306,0.257,1.766,0.717
	c0.662,0.662,0.653,1.481,0.653,2.612C5.38,15.256,5.389,16.074,4.727,16.737z M3.78,12.285c-0.184-0.211-0.469-0.349-0.818-0.349
	s-0.644,0.138-0.828,0.349c-0.249,0.276-0.312,0.58-0.312,1.84c0,1.26,0.064,1.563,0.312,1.839c0.184,0.212,0.478,0.35,0.828,0.35
	s0.634-0.138,0.818-0.35c0.249-0.275,0.322-0.579,0.322-1.839C4.102,12.865,4.028,12.562,3.78,12.285z M9.199,13.913
	c-0.184-0.184-0.34-0.285-0.635-0.285c-0.368,0-0.772,0.275-0.772,0.883v2.888H6.596v-4.792h1.168v0.459
	c0.23-0.275,0.69-0.515,1.205-0.515c0.469,0,0.8,0.12,1.131,0.451L9.199,13.913z M11.379,12.009c-0.414,0-0.754-0.34-0.754-0.754
	c0-0.414,0.34-0.745,0.754-0.745s0.745,0.331,0.745,0.745C12.125,11.669,11.793,12.009,11.379,12.009z M10.782,17.399v-4.792h1.195
	v4.792H10.782z M14.967,19.21c-0.735,0-1.242-0.147-1.738-0.625l0.745-0.754c0.267,0.258,0.534,0.368,0.938,0.368
	c0.717,0,0.966-0.506,0.966-0.994v-0.487c-0.312,0.35-0.671,0.478-1.141,0.478c-0.469,0-0.874-0.156-1.14-0.423
	c-0.451-0.451-0.488-1.067-0.488-1.904s0.037-1.444,0.488-1.895c0.267-0.267,0.681-0.423,1.149-0.423
	c0.506,0,0.837,0.138,1.168,0.506v-0.451h1.159v4.617C17.073,18.374,16.254,19.21,14.967,19.21z M15.086,13.628
	c-0.708,0-0.782,0.607-0.782,1.241c0,0.635,0.074,1.251,0.782,1.251c0.708,0,0.791-0.616,0.791-1.251
	C15.877,14.235,15.795,13.628,15.086,13.628z M19.015,12.009c-0.414,0-0.754-0.34-0.754-0.754c0-0.414,0.34-0.745,0.754-0.745
	c0.414,0,0.745,0.331,0.745,0.745C19.76,11.669,19.429,12.009,19.015,12.009z M18.417,17.399v-4.792h1.196v4.792H18.417z
	 M23.734,17.399v-2.897c0-0.653-0.414-0.874-0.791-0.874s-0.8,0.22-0.8,0.874v2.897h-1.196v-4.792h1.168v0.441
	c0.312-0.331,0.754-0.497,1.195-0.497c0.479,0,0.865,0.156,1.131,0.423c0.386,0.386,0.487,0.837,0.487,1.361v3.062H23.734z
	 M28.674,17.399v-0.414c-0.322,0.322-0.625,0.46-1.177,0.46c-0.542,0-0.938-0.138-1.223-0.423c-0.257-0.267-0.396-0.653-0.396-1.076
	c0-0.763,0.524-1.389,1.637-1.389h1.131v-0.239c0-0.524-0.258-0.754-0.892-0.754c-0.46,0-0.671,0.111-0.92,0.396l-0.763-0.745
	c0.469-0.515,0.929-0.662,1.729-0.662c1.343,0,2.042,0.57,2.042,1.692v3.155H28.674z M28.646,15.375h-0.947
	c-0.432,0-0.671,0.202-0.671,0.542c0,0.331,0.221,0.552,0.689,0.552c0.332,0,0.543-0.027,0.754-0.229
	c0.129-0.12,0.175-0.313,0.175-0.607V15.375z M32.483,17.399c-0.984,0-1.398-0.69-1.398-1.37v-5.178h1.196v5.104
	c0,0.285,0.119,0.432,0.423,0.432h0.46v1.012H32.483z M38.849,11.991v5.408H37.57v-5.408h-1.711v-1.141h4.7v1.141H38.849z
	 M42.446,15.375c0,0.616,0.377,1.067,1.048,1.067c0.524,0,0.782-0.147,1.085-0.451l0.727,0.708
	c-0.488,0.487-0.957,0.754-1.821,0.754c-1.131,0-2.216-0.515-2.216-2.456c0-1.563,0.846-2.446,2.087-2.446
	c1.333,0,2.088,0.975,2.088,2.29v0.533H42.446z M44.157,14.042c-0.129-0.285-0.396-0.497-0.8-0.497c-0.404,0-0.671,0.211-0.8,0.497
	c-0.074,0.175-0.101,0.304-0.11,0.515h1.821C44.258,14.346,44.23,14.217,44.157,14.042z M48.453,17.454
	c-0.957,0-2.143-0.515-2.143-2.456s1.187-2.446,2.143-2.446c0.662,0,1.159,0.202,1.582,0.644l-0.809,0.81
	c-0.249-0.267-0.46-0.377-0.772-0.377c-0.285,0-0.506,0.101-0.681,0.312c-0.184,0.23-0.267,0.552-0.267,1.058
	s0.083,0.837,0.267,1.067c0.175,0.211,0.396,0.312,0.681,0.312c0.312,0,0.524-0.11,0.772-0.377l0.809,0.8
	C49.612,17.243,49.115,17.454,48.453,17.454z M53.715,17.399v-2.925c0-0.634-0.405-0.846-0.782-0.846s-0.772,0.22-0.772,0.846v2.925
	h-1.196v-6.548h1.196v2.198c0.322-0.331,0.726-0.497,1.149-0.497c1.048,0,1.6,0.736,1.6,1.747v3.1H53.715z M58.986,17.399v-2.897
	c0-0.653-0.414-0.874-0.791-0.874c-0.377,0-0.8,0.22-0.8,0.874v2.897h-1.196v-4.792h1.168v0.441
	c0.313-0.331,0.754-0.497,1.196-0.497c0.478,0,0.864,0.156,1.131,0.423c0.386,0.386,0.487,0.837,0.487,1.361v3.062H58.986z
	 M64.782,16.866c-0.294,0.312-0.782,0.588-1.49,0.588c-0.708,0-1.187-0.276-1.48-0.588c-0.433-0.451-0.543-0.994-0.543-1.867
	c0-0.865,0.11-1.407,0.543-1.858c0.294-0.312,0.772-0.588,1.48-0.588c0.708,0,1.196,0.276,1.49,0.588
	c0.432,0.451,0.542,0.993,0.542,1.858C65.324,15.872,65.214,16.415,64.782,16.866z M63.853,13.84
	c-0.138-0.138-0.322-0.211-0.561-0.211s-0.414,0.073-0.552,0.211c-0.248,0.248-0.276,0.662-0.276,1.159s0.028,0.919,0.276,1.168
	c0.138,0.138,0.312,0.211,0.552,0.211s0.423-0.074,0.561-0.211c0.249-0.249,0.276-0.671,0.276-1.168S64.101,14.088,63.853,13.84z
	 M67.818,17.399c-0.984,0-1.398-0.69-1.398-1.37v-5.178h1.196v5.104c0,0.285,0.12,0.432,0.423,0.432h0.46v1.012H67.818z
	 M72.767,16.866c-0.294,0.312-0.782,0.588-1.49,0.588s-1.187-0.276-1.481-0.588c-0.432-0.451-0.542-0.994-0.542-1.867
	c0-0.865,0.11-1.407,0.542-1.858c0.294-0.312,0.773-0.588,1.481-0.588s1.195,0.276,1.49,0.588c0.432,0.451,0.542,0.993,0.542,1.858
	C73.309,15.872,73.199,16.415,72.767,16.866z M71.838,13.84c-0.138-0.138-0.322-0.211-0.561-0.211s-0.414,0.073-0.552,0.211
	c-0.249,0.248-0.276,0.662-0.276,1.159s0.027,0.919,0.276,1.168c0.138,0.138,0.312,0.211,0.552,0.211s0.423-0.074,0.561-0.211
	c0.248-0.249,0.276-0.671,0.276-1.168S72.086,14.088,71.838,13.84z M76.106,19.21c-0.735,0-1.241-0.147-1.738-0.625l0.745-0.754
	c0.267,0.258,0.534,0.368,0.938,0.368c0.717,0,0.965-0.506,0.965-0.994v-0.487c-0.312,0.35-0.671,0.478-1.141,0.478
	c-0.469,0-0.874-0.156-1.14-0.423c-0.451-0.451-0.487-1.067-0.487-1.904s0.037-1.444,0.487-1.895
	c0.267-0.267,0.681-0.423,1.149-0.423c0.506,0,0.837,0.138,1.168,0.506v-0.451h1.159v4.617C78.213,18.374,77.394,19.21,76.106,19.21
	z M76.226,13.628c-0.708,0-0.782,0.607-0.782,1.241c0,0.635,0.074,1.251,0.782,1.251c0.708,0,0.791-0.616,0.791-1.251
	C77.017,14.235,76.935,13.628,76.226,13.628z M80.155,12.009c-0.414,0-0.754-0.34-0.754-0.754c0-0.414,0.34-0.745,0.754-0.745
	s0.745,0.331,0.745,0.745C80.9,11.669,80.569,12.009,80.155,12.009z M79.557,17.399v-4.792h1.195v4.792H79.557z M83.025,15.375
	c0,0.616,0.377,1.067,1.048,1.067c0.524,0,0.782-0.147,1.085-0.451l0.727,0.708c-0.487,0.487-0.957,0.754-1.821,0.754
	c-1.131,0-2.216-0.515-2.216-2.456c0-1.563,0.846-2.446,2.088-2.446c1.333,0,2.087,0.975,2.087,2.29v0.533H83.025z M84.735,14.042
	c-0.128-0.285-0.395-0.497-0.8-0.497s-0.671,0.211-0.8,0.497c-0.074,0.175-0.101,0.304-0.11,0.515h1.821
	C84.837,14.346,84.809,14.217,84.735,14.042z M88.701,17.454c-0.754,0-1.435-0.083-2.042-0.69l0.782-0.782
	c0.396,0.396,0.91,0.451,1.278,0.451c0.414,0,0.846-0.138,0.846-0.497c0-0.239-0.129-0.405-0.506-0.441l-0.754-0.074
	c-0.864-0.083-1.398-0.459-1.398-1.343c0-0.993,0.874-1.526,1.849-1.526c0.745,0,1.371,0.128,1.83,0.561l-0.736,0.745
	c-0.276-0.248-0.699-0.322-1.113-0.322c-0.478,0-0.681,0.221-0.681,0.46c0,0.175,0.074,0.377,0.497,0.414l0.754,0.074
	c0.947,0.092,1.426,0.598,1.426,1.407C90.733,16.948,89.832,17.454,88.701,17.454z M94.469,12.009c-0.414,0-0.754-0.34-0.754-0.754
	c0-0.414,0.34-0.745,0.754-0.745c0.414,0,0.745,0.331,0.745,0.745C95.214,11.669,94.883,12.009,94.469,12.009z M93.871,17.399
	v-4.792h1.196v4.792H93.871z M99.188,17.399v-2.897c0-0.653-0.414-0.874-0.791-0.874s-0.8,0.22-0.8,0.874v2.897h-1.196v-4.792h1.168
	v0.441c0.312-0.331,0.754-0.497,1.195-0.497c0.479,0,0.865,0.156,1.131,0.423c0.386,0.386,0.487,0.837,0.487,1.361v3.062H99.188z
	 M103.899,17.399v-6.548h1.278v6.548H103.899z M109.399,17.399v-2.897c0-0.653-0.414-0.874-0.791-0.874s-0.8,0.22-0.8,0.874v2.897
	h-1.195v-4.792h1.168v0.441c0.312-0.331,0.754-0.497,1.195-0.497c0.479,0,0.865,0.156,1.131,0.423
	c0.386,0.386,0.487,0.837,0.487,1.361v3.062H109.399z M113.227,13.656v3.743h-1.195v-3.743h-0.497v-0.911h0.497v-0.598
	c0-0.681,0.423-1.371,1.398-1.371h0.68v1.012h-0.469c-0.285,0-0.414,0.157-0.414,0.433v0.524h0.883v0.911H113.227z M118.341,16.866
	c-0.294,0.312-0.782,0.588-1.49,0.588c-0.708,0-1.186-0.276-1.48-0.588c-0.432-0.451-0.542-0.994-0.542-1.867
	c0-0.865,0.11-1.407,0.542-1.858c0.294-0.312,0.772-0.588,1.48-0.588c0.708,0,1.196,0.276,1.49,0.588
	c0.432,0.451,0.542,0.993,0.542,1.858C118.884,15.872,118.773,16.415,118.341,16.866z M117.412,13.84
	c-0.138-0.138-0.322-0.211-0.561-0.211c-0.239,0-0.414,0.073-0.552,0.211c-0.248,0.248-0.276,0.662-0.276,1.159
	s0.028,0.919,0.276,1.168c0.138,0.138,0.313,0.211,0.552,0.211c0.239,0,0.423-0.074,0.561-0.211
	c0.249-0.249,0.276-0.671,0.276-1.168S117.661,14.088,117.412,13.84z M122.628,13.913c-0.184-0.184-0.34-0.285-0.635-0.285
	c-0.368,0-0.772,0.275-0.772,0.883v2.888h-1.196v-4.792h1.168v0.459c0.23-0.275,0.689-0.515,1.205-0.515
	c0.469,0,0.8,0.12,1.131,0.451L122.628,13.913z M129.785,17.399v-2.897c0-0.653-0.414-0.874-0.791-0.874
	c-0.368,0-0.8,0.22-0.8,0.846v2.925h-1.195v-2.897c0-0.653-0.414-0.874-0.791-0.874c-0.377,0-0.8,0.22-0.8,0.874v2.897h-1.196
	v-4.792h1.168v0.441c0.312-0.322,0.754-0.497,1.196-0.497c0.533,0,0.965,0.193,1.269,0.607c0.405-0.423,0.837-0.607,1.435-0.607
	c0.478,0,0.911,0.156,1.177,0.423c0.386,0.386,0.524,0.837,0.524,1.361v3.062H129.785z M134.726,17.399v-0.414
	c-0.322,0.322-0.625,0.46-1.177,0.46c-0.543,0-0.938-0.138-1.224-0.423c-0.257-0.267-0.396-0.653-0.396-1.076
	c0-0.763,0.524-1.389,1.637-1.389h1.131v-0.239c0-0.524-0.258-0.754-0.892-0.754c-0.46,0-0.671,0.111-0.92,0.396l-0.763-0.745
	c0.469-0.515,0.929-0.662,1.729-0.662c1.343,0,2.042,0.57,2.042,1.692v3.155H134.726z M134.698,15.375h-0.947
	c-0.432,0-0.671,0.202-0.671,0.542c0,0.331,0.221,0.552,0.69,0.552c0.331,0,0.542-0.027,0.754-0.229
	c0.129-0.12,0.175-0.313,0.175-0.607V15.375z M138.682,17.399c-0.975,0-1.389-0.69-1.389-1.37v-2.373h-0.506v-0.911h0.506v-1.416
	h1.196v1.416h0.846v0.911h-0.846v2.299c0,0.276,0.129,0.432,0.414,0.432h0.433v1.012H138.682z M141.019,12.009
	c-0.414,0-0.754-0.34-0.754-0.754c0-0.414,0.34-0.745,0.754-0.745s0.745,0.331,0.745,0.745
	C141.764,11.669,141.433,12.009,141.019,12.009z M140.421,17.399v-4.792h1.196v4.792H140.421z M146.262,16.866
	c-0.294,0.312-0.782,0.588-1.49,0.588c-0.708,0-1.186-0.276-1.48-0.588c-0.433-0.451-0.542-0.994-0.542-1.867
	c0-0.865,0.11-1.407,0.542-1.858c0.294-0.312,0.772-0.588,1.48-0.588c0.708,0,1.196,0.276,1.49,0.588
	c0.432,0.451,0.542,0.993,0.542,1.858C146.804,15.872,146.694,16.415,146.262,16.866z M145.333,13.84
	c-0.138-0.138-0.322-0.211-0.561-0.211s-0.414,0.073-0.552,0.211c-0.248,0.248-0.276,0.662-0.276,1.159s0.028,0.919,0.276,1.168
	c0.138,0.138,0.312,0.211,0.552,0.211s0.423-0.074,0.561-0.211c0.249-0.249,0.276-0.671,0.276-1.168S145.581,14.088,145.333,13.84z
	 M150.733,17.399v-2.897c0-0.653-0.414-0.874-0.791-0.874s-0.8,0.22-0.8,0.874v2.897h-1.196v-4.792h1.168v0.441
	c0.312-0.331,0.754-0.497,1.195-0.497c0.479,0,0.865,0.156,1.131,0.423c0.386,0.386,0.487,0.837,0.487,1.361v3.062H150.733z
	 M159.564,17.399l-0.479-0.57c-0.303,0.239-0.754,0.625-1.692,0.625c-1.444,0-2.161-0.754-2.161-1.987
	c0-0.837,0.607-1.379,1.177-1.756c-0.267-0.304-0.653-0.763-0.653-1.389c0-0.892,0.653-1.527,1.748-1.527
	c1.03,0,1.674,0.653,1.674,1.545c0,0.506-0.267,0.846-0.671,1.141c0,0-0.304,0.23-0.469,0.34l1.104,1.306
	c0.211-0.285,0.312-0.68,0.331-1.149h1.131c-0.046,0.846-0.239,1.518-0.699,2.033l1.177,1.389H159.564z M157.053,14.447
	c-0.396,0.276-0.662,0.533-0.662,1.002c0,0.542,0.441,0.919,0.993,0.919c0.386,0,0.671-0.12,0.975-0.386L157.053,14.447z
	 M157.504,11.816c-0.359,0-0.543,0.23-0.543,0.533c0,0.239,0.203,0.469,0.433,0.736c0.092-0.055,0.276-0.184,0.276-0.184
	c0.211-0.147,0.377-0.322,0.377-0.552C158.046,12.046,157.844,11.816,157.504,11.816z M166.4,17.454
	c-0.717,0-1.306-0.258-1.766-0.717c-0.663-0.663-0.644-1.481-0.644-2.612c0-1.131-0.019-1.95,0.644-2.612
	c0.459-0.46,1.048-0.717,1.766-0.717c0.837,0,1.352,0.294,1.821,0.754l-0.846,0.846c-0.286-0.285-0.516-0.459-0.975-0.459
	c-0.35,0-0.625,0.129-0.81,0.34c-0.248,0.276-0.322,0.588-0.322,1.849c0,1.26,0.074,1.572,0.322,1.848
	c0.184,0.212,0.46,0.34,0.81,0.34c0.459,0,0.689-0.174,0.975-0.46l0.846,0.846C167.752,17.16,167.237,17.454,166.4,17.454z
	 M172.6,16.866c-0.294,0.312-0.782,0.588-1.49,0.588c-0.708,0-1.186-0.276-1.48-0.588c-0.432-0.451-0.542-0.994-0.542-1.867
	c0-0.865,0.11-1.407,0.542-1.858c0.294-0.312,0.772-0.588,1.48-0.588c0.708,0,1.196,0.276,1.49,0.588
	c0.432,0.451,0.542,0.993,0.542,1.858C173.143,15.872,173.032,16.415,172.6,16.866z M171.671,13.84
	c-0.138-0.138-0.322-0.211-0.561-0.211s-0.414,0.073-0.552,0.211c-0.248,0.248-0.276,0.662-0.276,1.159s0.028,0.919,0.276,1.168
	c0.138,0.138,0.312,0.211,0.552,0.211s0.423-0.074,0.561-0.211c0.249-0.249,0.276-0.671,0.276-1.168S171.919,14.088,171.671,13.84z
	 M177.071,17.399v-2.897c0-0.653-0.415-0.874-0.792-0.874s-0.8,0.22-0.8,0.874v2.897h-1.196v-4.792h1.168v0.441
	c0.312-0.331,0.754-0.497,1.196-0.497c0.478,0,0.864,0.156,1.131,0.423c0.387,0.386,0.488,0.837,0.488,1.361v3.062H177.071z
	 M181.055,17.399c-0.975,0-1.389-0.69-1.389-1.37v-2.373h-0.506v-0.911h0.506v-1.416h1.196v1.416h0.846v0.911h-0.846v2.299
	c0,0.276,0.128,0.432,0.414,0.432h0.432v1.012H181.055z M185.397,13.913c-0.184-0.184-0.34-0.285-0.635-0.285
	c-0.368,0-0.772,0.275-0.772,0.883v2.888h-1.195v-4.792h1.168v0.459c0.23-0.275,0.69-0.515,1.205-0.515
	c0.469,0,0.8,0.12,1.131,0.451L185.397,13.913z M190.291,16.866c-0.294,0.312-0.782,0.588-1.49,0.588
	c-0.708,0-1.186-0.276-1.48-0.588c-0.432-0.451-0.542-0.994-0.542-1.867c0-0.865,0.11-1.407,0.542-1.858
	c0.294-0.312,0.773-0.588,1.48-0.588c0.708,0,1.196,0.276,1.49,0.588c0.433,0.451,0.542,0.993,0.542,1.858
	C190.833,15.872,190.723,16.415,190.291,16.866z M189.362,13.84c-0.138-0.138-0.322-0.211-0.562-0.211
	c-0.239,0-0.414,0.073-0.551,0.211c-0.249,0.248-0.276,0.662-0.276,1.159s0.027,0.919,0.276,1.168
	c0.138,0.138,0.312,0.211,0.551,0.211c0.239,0,0.423-0.074,0.562-0.211c0.249-0.249,0.275-0.671,0.275-1.168
	S189.61,14.088,189.362,13.84z M193.327,17.399c-0.983,0-1.397-0.69-1.397-1.37v-5.178h1.195v5.104c0,0.285,0.12,0.432,0.423,0.432
	h0.46v1.012H193.327z"/>
<path fill="#1D2088" d="M9.693,56.499v2.842H21.06v2.842H9.693v2.842h13.498v2.841H1.168V53.658h22.023v2.841H9.693z"/>
<path fill="#1D2088" d="M34.44,53.658v11.367h13.498v2.841H25.915V53.658H34.44z"/>
<path fill="#1D2088" d="M59.189,56.499v2.842h11.366v2.842H59.189v2.842h13.497v2.841H50.664V53.658h22.022v2.841H59.189z"/>
<path fill="#1D2088" d="M101.553,62.182c-0.461,1.979-1.863,3.597-3.709,4.358c-0.494,0.203-1.019,0.341-1.566,0.413
	c-2.477,0.59-5.06,0.912-7.717,0.912c-2.66,0-5.244-0.322-7.722-0.914c-0.54-0.072-1.06-0.208-1.548-0.408
	c-2.276-0.935-3.881-3.171-3.881-5.784c0-2.611,1.603-4.844,3.879-5.78c0.489-0.201,1.01-0.338,1.552-0.409
	c2.479-0.59,5.061-0.913,7.72-0.913c2.658,0,5.239,0.323,7.715,0.912c0.549,0.072,1.076,0.21,1.57,0.414
	c1.845,0.762,3.247,2.379,3.707,4.357h-9.278c-0.282-1.024-0.862-1.923-1.643-2.599c-0.601-0.376-1.308-0.598-2.071-0.598
	c-0.76,0-1.467,0.222-2.068,0.597c-1.041,0.903-1.726,2.202-1.823,3.662c-0.008,0.118-0.018,0.235-0.018,0.354
	c0,0.001,0,0.003,0,0.005c0,0.001,0,0.003,0,0.005c0,1.605,0.716,3.042,1.842,4.018c0.6,0.375,1.308,0.595,2.067,0.595
	c0.762,0,1.47-0.22,2.069-0.596c0.781-0.677,1.358-1.578,1.642-2.601H101.553z"/>
<path fill="#1D2088" d="M109.503,67.866V56.499h-6.394v-2.841h21.313v2.841h-6.395v11.367H109.503z"/>
<path fill="#1D2088" d="M149.169,62.183c2.354,0,4.263-1.909,4.263-4.264c0-2.354-1.909-4.262-4.263-4.262h-22.022v14.208h8.525
	v-5.684h1.041l6.773,5.684h9.946l-6.773-5.684h2.506C149.167,62.182,149.168,62.183,149.169,62.183z M145.146,59.317
	c0.003,0.007,0.006,0.015,0.008,0.021c0,0,0,0.002,0,0.002h-9.482v-2.842h7.814v-0.002l1.67,0.002
	c-0.004,0.008-0.008,0.016-0.011,0.024c0.671,0.114,1.183,0.693,1.183,1.396C146.329,58.623,145.816,59.203,145.146,59.317z"/>
<path fill="#1D2088" d="M164.683,67.866h-8.525V53.658h8.525V67.866z"/>
<path fill="#1D2088" d="M176.651,60.757c0,0.001-0.001,0.003-0.001,0.005c0,0.001,0.001,0.003,0.001,0.005
	c0,1.605,0.716,3.042,1.842,4.018c0.599,0.375,1.307,0.595,2.067,0.595c0.761,0,1.468-0.22,2.068-0.596
	c0.781-0.677,1.357-1.578,1.642-2.601h9.28c-0.46,1.979-1.863,3.597-3.709,4.358c-0.494,0.203-1.02,0.341-1.566,0.413
	c-2.478,0.59-5.059,0.912-7.718,0.912c-2.66,0-5.243-0.322-7.722-0.914c-0.54-0.072-1.059-0.208-1.547-0.408
	c-2.276-0.935-3.881-3.171-3.881-5.784c0-2.611,1.603-4.844,3.879-5.78c0.489-0.201,1.01-0.338,1.552-0.409
	c2.479-0.59,5.061-0.913,7.719-0.913s5.239,0.323,7.716,0.912c0.548,0.072,1.076,0.21,1.57,0.414
	c1.846,0.762,3.247,2.379,3.707,4.357h-9.278c-0.282-1.024-0.862-1.923-1.643-2.599c-0.601-0.376-1.309-0.598-2.07-0.598
	c-0.76,0-1.468,0.222-2.069,0.597c-1.041,0.903-1.726,2.202-1.824,3.662C176.661,60.52,176.651,60.637,176.651,60.757z"/>
<rect y="50.348" fill="#1D2088" width="194.643" height="2.083"/>
<path fill="#1D2088" d="M61.896,29.716v4.672h18.686v4.671H61.896v4.672h22.189v4.671H47.882V25.045h36.203v4.671H61.896z"/>
<path fill="#1D2088" d="M88.952,25.045h14.014v23.356H88.952V25.045z"/>
<path fill="#1D2088" d="M151.433,25.045l-14.808,8.549l14.808,14.807h-17.519l-8.396-8.396l-3.283,1.896v6.5h-14.015V25.045h14.015
	v8.091l14.015-8.091H151.433z"/>
<path fill="#1D2088" d="M151.433,36.722c0,4.295,2.636,7.97,6.376,9.507c0.801,0.328,1.653,0.553,2.542,0.67
	c4.07,0.971,8.314,1.502,12.683,1.502c4.368,0,8.607-0.531,12.677-1.5c0.899-0.118,1.763-0.345,2.572-0.679
	c3.732-1.541,6.359-5.212,6.359-9.5c0-4.287-2.625-7.957-6.356-9.498c-0.811-0.335-1.677-0.563-2.577-0.68
	c-4.07-0.969-8.309-1.499-12.676-1.499c-4.367,0-8.607,0.531-12.679,1.5c-0.891,0.118-1.746,0.342-2.551,0.673
	C154.067,28.757,151.433,32.43,151.433,36.722z M166.614,36.723c0-0.002,0-0.005,0-0.008c0-0.197,0.017-0.389,0.03-0.582
	c0.16-2.401,1.284-4.536,2.994-6.021c0.987-0.617,2.15-0.98,3.399-0.98c1.25,0,2.414,0.363,3.401,0.981
	c1.709,1.484,2.832,3.618,2.993,6.02c0.013,0.193,0.029,0.385,0.029,0.582c0,0.002,0.001,0.005,0.001,0.008
	s-0.001,0.006-0.001,0.008c-0.002,2.64-1.176,5-3.026,6.604c-0.986,0.618-2.147,0.979-3.397,0.979c-1.249,0-2.41-0.362-3.395-0.979
	c-1.85-1.603-3.026-3.964-3.028-6.605C166.614,36.729,166.614,36.725,166.614,36.723z"/>
<path fill="#1D2088" d="M0.407,34.388C0.148,33.656,0,32.872,0,32.052s0.148-1.603,0.406-2.334c0.962-2.72,3.549-4.672,6.599-4.672
	h35.037v4.672H16.341c-1.286,0.005-2.328,1.047-2.328,2.334c0,1.29,1.046,2.336,2.335,2.336h19.853c3.051,0,5.639,1.951,6.602,4.672
	c0.26,0.731,0.407,1.514,0.407,2.334c0,0.82-0.147,1.604-0.407,2.336c-0.963,2.72-3.551,4.671-6.602,4.671H1.168V43.73h25.692
	v-0.001c1.29,0,2.336-1.046,2.336-2.336c0-1.284-1.038-2.325-2.32-2.333H7.005C3.956,39.06,1.37,37.107,0.407,34.388z"/>
</svg>
